<svg version="1.2" xmlns="http://www.w3.org/2000/svg" viewBox="0 0 1080 1080" width="1080" height="1080">
	<title>BuyBoxLogo</title>
	<style>
		.s0 { fill: #4096ff } 
	</style>
	<path id="BuyBox" class="s0" aria-label="BuyBox"  d="m224.6 522.2h-31.3l-9.6 52.8h31.3q15.7 0 24.4-6.5 8.8-6.5 11.2-20 2.5-13.5-4-19.8-6.3-6.5-22-6.5zm8.3-59.2h-28.8l-7.9 43.4h28.8q14.3 0 22.2-5.3 8.1-5.4 10.1-16.4 1.9-10.9-4.1-16.3-6-5.4-20.3-5.4zm-71.6 128l26.2-144.1h49.8q22.3 0 32.7 9.3 10.3 9.3 7.2 26.4-2.4 13.2-10 21-7.6 7.8-19.9 9.7 13.8 3.1 19.9 13 6.3 9.7 3.6 24.4-3.5 19.3-18.5 29.8-15.1 10.5-39.3 10.5zm58.1-68.8h-31.3l-9.6 52.8h31.3q15.7 0 24.4-6.5 8.8-6.5 11.3-20 2.4-13.5-4-19.8-6.4-6.5-22.1-6.5zm8.3-59.2h-28.8l-7.9 43.4h28.8q14.3 0 22.2-5.3 8.1-5.4 10.1-16.4 1.9-10.9-4.1-16.3-6-5.4-20.3-5.4zm-71.6 128l26.2-144.1h49.8q22.3 0 32.7 9.3 10.3 9.3 7.2 26.4-2.4 13.2-10 21-7.6 7.8-19.9 9.7 13.8 3.1 20 13 6.2 9.7 3.5 24.4-3.5 19.3-18.5 29.8-15.1 10.5-39.3 10.5zm151.3-42.6l11.9-65.5h17.7l-11.7 64.8q-2.8 15.3 1.7 23 4.6 7.7 16.6 7.7 14.4 0 24.3-9.2 10.1-9.2 13-25l11.1-61.3h17.8l-19.7 108.1h-17.7l3-16.6q-8.3 9.8-17.7 14.7-9.4 4.7-20.7 4.7-18.6 0-26.1-11.6-7.6-11.6-3.5-33.8zm57-68.1zm-62.2 68.1l11.9-65.5h17.7l-11.8 64.8q-2.7 15.3 1.8 23 4.6 7.7 16.6 7.7 14.4 0 24.3-9.2 10.1-9.2 13-25l11.1-61.3h17.8l-19.7 108.1h-17.7l3-16.6q-8.3 9.8-17.7 14.7-9.4 4.7-20.7 4.7-18.6 0-26.1-11.6-7.6-11.6-3.5-33.8zm57-68.1zm184.9 2.6l-68.9 118.1q-11.1 19.3-19.3 25.2-8.2 5.9-20.2 5.9h-14.1l2.7-14.9h10.4q7.3 0 12-3.4 4.7-3.5 12-16.4l4.6-8.1-24.3-106.4h18.8l18.4 84.6 49.1-84.6zm-5.2 0l-69 118.1q-11 19.3-19.2 25.2-8.2 5.9-20.2 5.9h-14.2l2.7-14.9h10.5q7.3 0 12-3.4 4.7-3.5 11.9-16.4l4.7-8.1-24.4-106.4h18.8l18.4 84.6 49.2-84.6zm79.4 39.3h-31.2l-9.6 52.8h31.2q15.7 0 24.4-6.5 8.9-6.5 11.3-20 2.5-13.5-4-19.8-6.4-6.5-22.1-6.5zm8.4-59.2h-28.9l-7.9 43.4h28.9q14.3 0 22.2-5.3 8-5.4 10-16.4 2-10.9-4.1-16.3-5.9-5.4-20.2-5.4zm-71.7 128l26.3-144.1h49.7q22.3 0 32.7 9.3 10.4 9.3 7.3 26.4-2.4 13.2-10 21-7.6 7.8-19.9 9.7 13.8 3.1 19.9 13 6.2 9.7 3.6 24.4-3.5 19.3-18.6 29.8-15 10.5-39.2 10.5zm58-68.8h-31.2l-9.6 52.8h31.2q15.7 0 24.4-6.5 8.9-6.5 11.3-20 2.5-13.5-4-19.8-6.4-6.5-22.1-6.5zm8.4-59.2h-28.9l-7.9 43.4h28.9q14.3 0 22.2-5.3 8-5.4 10-16.4 2-10.9-4.1-16.3-5.9-5.4-20.2-5.4zm-71.6 128l26.2-144.1h49.8q22.2 0 32.6 9.3 10.4 9.3 7.3 26.4-2.4 13.2-10 21-7.6 7.8-19.9 9.7 13.8 3.1 19.9 13 6.2 9.7 3.6 24.4-3.5 19.3-18.6 29.8-15 10.5-39.2 10.5zm204.6-95.6q-14.3 0-24.6 11.2-10.4 11.1-13.9 30.5-3.5 19.4 2.7 30.6 6.2 11 20.6 11 14.2 0 24.5-11.1 10.4-11.2 13.9-30.5 3.5-19.2-2.8-30.4-6.2-11.3-20.4-11.3zm2.7-15.1q23.2 0 33.7 15.1 10.4 15 5.6 41.7-4.8 26.5-20.8 41.6-16 15.1-39.1 15.1-23.3 0-33.8-15.1-10.3-15.1-5.5-41.6 4.8-26.7 20.7-41.7 16-15.1 39.2-15.1zm-7.9 15.1q-14.3 0-24.6 11.2-10.4 11.1-13.9 30.5-3.5 19.4 2.6 30.6 6.3 11 20.7 11 14.2 0 24.5-11.1 10.4-11.2 13.9-30.5 3.5-19.2-2.8-30.4-6.2-11.3-20.4-11.3zm2.7-15.1q23.2 0 33.6 15.1 10.5 15 5.7 41.7-4.9 26.5-20.8 41.6-16 15.1-39.1 15.1-23.3 0-33.8-15.1-10.3-15.1-5.5-41.6 4.8-26.7 20.7-41.7 16-15.1 39.2-15.1zm151.9 2.6h20.9l-48.6 52.6 31 55.5h-20.9l-23.8-42.5-39.1 42.5h-21l52.3-56.5-29-51.6h20.9l21.7 38.5zm-5.3 0h21l-48.7 52.6 31 55.5h-20.9l-23.7-42.5-39.2 42.5h-20.9l52.2-56.5-29-51.6h20.9l21.7 38.5z"/>
</svg>